<?xml version="1.0" encoding="UTF-8"?>
<svg width="192px" height="192px" viewBox="0 0 192 192" version="1.1" xmlns="http://www.w3.org/2000/svg" xmlns:xlink="http://www.w3.org/1999/xlink">
    <!-- Generator: Sketch 49.3 (51167) - http://www.bohemiancoding.com/sketch -->
    <title>Page 1@1.5x</title>
    <desc>Created with Sketch.</desc>
    <defs>
        <circle id="path-1" cx="96" cy="96" r="96"></circle>
        <circle id="path-3" cx="96" cy="96" r="96"></circle>
        <path d="M124.8,28.608 L178.368,43.392 C184.512,45.504 189.312,50.112 192,56.064 L192,74.88 L0,74.88 L0,56.064 C2.496,50.112 7.488,45.504 13.632,43.392 L67.2,28.608 L67.2,0 L124.8,0 L124.8,28.608 L124.8,28.608 Z" id="path-5"></path>
        <path d="M124.8,28.608 L178.368,43.392 C184.512,45.504 189.312,50.112 192,56.064 L192,74.88 L0,74.88 L0,56.064 C2.496,50.112 7.488,45.504 13.632,43.392 L67.2,28.608 L67.2,0 L124.8,0 L124.8,28.608 L124.8,28.608 Z" id="path-7"></path>
        <circle id="path-9" cx="96" cy="96" r="96"></circle>
        <linearGradient x1="60.17971%" y1="61.9598401%" x2="94.8556254%" y2="19.211048%" id="linearGradient-11">
            <stop stop-color="#000000" stop-opacity="0.1" offset="0%"></stop>
            <stop stop-color="#000000" offset="100%"></stop>
        </linearGradient>
    </defs>
    <g id="Sign-In-/-Sign-Up" stroke="none" stroke-width="1" fill="none" fill-rule="evenodd">
        <g id="13_Sign-Up-As" transform="translate(-75.000000, -286.000000)">
            <g id="Interpreter">
                <g id="icon" transform="translate(31.000000, 242.000000)">
                    <g id="Page-1" transform="translate(44.000000, 44.000000)">
                        <g id="icon">
                            <circle id="Oval" fill="#FFFFFF" cx="96" cy="96" r="96"></circle>
                            <g id="Group">
                                <g id="Clipped">
                                    <mask id="mask-2" fill="white">
                                        <use xlink:href="#path-1"></use>
                                    </mask>
                                    <g id="SVGID_1_"></g>
                                    <path d="M124.8,145.728 L178.368,160.512 C184.512,162.624 189.312,167.232 192,173.184 L192,192 L0,192 L0,173.184 C2.496,167.232 7.488,162.624 13.632,160.512 L67.2,145.728 L67.2,117.12 L124.8,117.12 L124.8,145.728 L124.8,145.728 Z" id="Shape" fill="#E6C19C" mask="url(#mask-2)"></path>
                                </g>
                                <g id="Clipped">
                                    <mask id="mask-4" fill="white">
                                        <use xlink:href="#path-3"></use>
                                    </mask>
                                    <g id="SVGID_1_"></g>
                                    <g id="Group" mask="url(#mask-4)">
                                        <g transform="translate(0.000000, 117.120000)" id="Clipped">
                                            <g>
                                                <mask id="mask-6" fill="white">
                                                    <use xlink:href="#path-5"></use>
                                                </mask>
                                                <g id="SVGID_3_"></g>
                                                <path d="M96,32.64 C92.736,32.64 88.512,31.872 85.632,30.528 C82.368,28.8 70.272,18.816 66.048,14.592 C60.672,8.832 57.984,1.536 57.216,-10.944 C56.448,-23.424 53.184,-67.968 53.184,-78.144 C53.184,-92.544 64.128,-115.008 95.616,-115.008 L95.808,-115.008 L95.808,-115.008 L95.808,-115.008 L96,-115.008 C127.68,-114.816 138.432,-92.544 138.432,-78.144 C138.432,-67.968 135.168,-23.424 134.4,-10.944 C133.632,1.536 130.944,8.64 125.568,14.592 C121.536,19.008 109.44,28.8 105.984,30.528 C103.488,31.872 99.264,32.64 96,32.64 L96,32.64 L96,32.64 Z" id="Shape" fill="#D4B08C" mask="url(#mask-6)"></path>
                                            </g>
                                            <g>
                                                <mask id="mask-8" fill="white">
                                                    <use xlink:href="#path-7"></use>
                                                </mask>
                                                <g id="SVGID_3_"></g>
                                                <path d="M0,-5.76 L192,-5.76 L192,74.88 L0,74.88 L0,-5.76 L0,-5.76 Z M96,51.84 C117.12,51.84 134.4,39.744 134.4,24.96 C134.4,10.176 117.12,-1.92 96,-1.92 C74.88,-1.92 57.6,10.176 57.6,24.96 C57.6,39.744 74.88,51.84 96,51.84 L96,51.84 Z" id="Shape" fill="#249CF2" mask="url(#mask-8)"></path>
                                            </g>
                                        </g>
                                    </g>
                                </g>
                            </g>
                            <path d="M96,142.08 C93.12,142.08 89.28,141.504 86.784,140.352 C83.712,139.008 72.96,131.52 69.312,128.256 C64.512,123.84 62.016,118.464 61.248,109.056 C60.48,99.648 57.6,66.24 57.6,58.56 C57.6,47.616 67.392,30.72 96,30.72 L96,30.72 L96,30.72 L96,30.72 L96,30.72 C124.608,30.72 134.4,47.616 134.4,58.56 C134.4,66.24 131.52,99.84 130.752,109.248 C129.984,118.656 127.68,124.032 122.688,128.448 C119.04,131.712 108.096,139.2 105.216,140.544 C102.72,141.504 98.88,142.08 96,142.08 L96,142.08 L96,142.08 Z" id="Shape" fill="#F2CEA5"></path>
                            <path d="M130.56,79.68 C130.56,79.68 133.632,80.448 139.2,78.528 C139.968,75.072 142.08,65.088 142.08,59.52 C142.08,53.952 141.504,48.576 138.432,43.968 C134.976,38.976 127.68,36.096 123.84,36.096 C119.424,38.784 109.056,44.928 105.792,48.576 C104.064,50.496 106.56,52.032 106.56,52.032 C106.56,52.032 108.864,51.072 109.824,50.88 C114.624,49.536 121.92,50.304 125.952,53.952 C130.56,58.176 130.56,68.16 130.752,70.848 C130.56,73.344 130.56,79.68 130.56,79.68 L130.56,79.68 Z" id="Shape" fill="#D98C21"></path>
                            <path d="M52.8,78.72 C58.368,80.64 61.44,85.248 61.44,85.248 L61.44,73.152 C61.44,70.08 61.44,60.672 66.048,54.528 C72.192,46.272 82.176,44.352 87.36,47.808 C90.048,49.536 99.072,58.368 108.672,51.072 C114.432,46.656 124.992,36.672 124.992,36.672 C124.992,36.672 119.424,19.584 94.08,21.504 C83.328,22.464 71.424,19.776 71.424,19.776 C71.424,19.776 71.232,24.576 73.152,27.072 C57.216,31.488 52.032,43.008 50.496,51.84 C50.112,53.568 49.92,55.296 49.92,57.024 L49.92,59.712 C49.92,65.28 52.032,75.072 52.8,78.72 L52.8,78.72 Z" id="Shape" fill="#E6A422"></path>
                            <path d="M109.44,115.2 L82.56,115.2 C81.792,115.2 81.408,115.968 81.792,116.736 C84.288,121.152 88.896,123.456 94.656,123.84 C100.608,124.224 107.136,121.344 110.208,116.736 C110.592,116.16 110.208,115.2 109.44,115.2 L109.44,115.2 Z" id="Shape" fill="#A3705F"></path>
                            <circle id="Oval" fill="#262626" cx="113.28" cy="86.4" r="3.84"></circle>
                            <circle id="Oval" fill="#262626" cx="78.72" cy="86.4" r="3.84"></circle>
                            <path d="M67.2,80.64 C67.2,80.64 69.312,74.88 78.912,74.88 C85.44,74.88 89.28,77.76 91.2,80.64" id="Shape" stroke="#CC9872" stroke-width="2"></path>
                            <path d="M124.992,80.64 C124.992,80.64 122.88,74.88 113.28,74.88 C104.064,74.88 99.84,80.64 99.84,84.48" id="Shape" stroke="#BB8660" stroke-width="2"></path>
                            <path d="M61.44,111.36 C51.648,110.4 44.16,102.144 44.16,92.16 C44.16,82.176 51.648,74.112 61.44,72.96 L61.44,111.36 L61.44,111.36 Z" id="Shape" fill="#6B363E"></path>
                        </g>
                        <mask id="mask-10" fill="white">
                            <use xlink:href="#path-9"></use>
                        </mask>
                        <use id="Mask" fill="#FFFFFF" opacity="0" xlink:href="#path-9"></use>
                        <path d="M38.9062,74.2506 C40.3592,71.9816 43.3862,71.3166 45.6552,72.7686 C46.8822,73.5536 47.6352,74.7996 47.8432,76.1366 C49.8642,74.3646 52.4232,73.4506 54.7982,74.9696 C56.5932,76.1186 57.8602,76.9996 58.8732,79.4446 C61.4152,76.7486 63.9802,77.2406 66.3952,78.7856 C68.6542,80.2316 69.6512,82.9086 69.0862,85.3856 C70.9642,84.4706 72.4992,85.7036 74.3842,86.9096 C77.2602,88.7496 78.1032,92.5876 76.2622,95.4636 L61.5232,118.4966 C63.0312,119.8896 63.6512,122.0106 63.0732,124.0456 L61.5132,129.5456 C60.4542,133.2776 57.6572,136.3276 54.0482,137.7006 L43.9692,141.7286 C43.5962,141.8976 43.2112,142.0516 42.8252,142.1856 L42.7792,142.2046 C42.7392,142.2206 42.6972,142.2346 42.6552,142.2446 C41.0762,142.7746 39.4472,143.0186 37.8022,142.9726 L27.1242,160.8456 L27.1202,160.8536 L27.0372,161.0076 C26.5232,162.0336 24.4542,166.8806 24.0272,166.6076 L-9.9878,163.9366 C-10.4458,163.6436 1.8402,144.7676 2.1332,144.3096 L13.1032,127.1676 C10.9272,122.7736 11.1972,117.5516 13.8542,113.4016 L38.9062,74.2506 Z" id="Combined-Shape" fill="url(#linearGradient-11)" opacity="0.1" mask="url(#mask-10)" transform="translate(33.618519, 119.309138) rotate(-5.000000) translate(-33.618519, -119.309138) "></path>
                        <g mask="url(#mask-10)">
                            <g transform="translate(34.000000, 112.500000) rotate(-5.000000) translate(-34.000000, -112.500000) translate(-10.000000, 65.000000)">
                                <path d="M55.5278,55.8124 C55.6068,55.9314 55.7078,56.0264 55.8208,56.0984 L54.2258,58.5904 C51.9798,55.1854 47.6698,53.4364 43.4498,54.7304 C42.7128,54.9574 42.0228,55.2724 41.3838,55.6574 C42.4438,54.1254 43.9918,52.9264 45.8638,52.3524 C49.5368,51.2264 53.4218,52.6164 55.5278,55.8124" id="Fill-1" fill="#F2E1DE"></path>
                                <path d="M68.0825,50.0443 L52.4015,40.0093 C51.4405,39.3943 50.3175,39.2543 49.2925,39.5123 C49.4555,39.1423 49.6395,38.7773 49.8645,38.4253 C50.7535,37.0373 52.6065,36.6293 53.9955,37.5193 L69.6775,47.5533 C71.0045,48.4023 71.6065,49.9923 71.1775,51.5083 L69.6165,57.0073 C69.4555,57.5763 69.2445,58.1243 68.9925,58.6503 L69.9995,55.0983 C70.5455,53.1753 69.7675,51.1213 68.0825,50.0443" id="Fill-3" fill="#F2E1DE"></path>
                                <path d="M25.0297,56.4725 C25.0717,56.5325 25.1147,56.5905 25.1577,56.6495 C25.2647,56.7965 25.3777,56.9415 25.4917,57.0845 C25.5337,57.1375 25.5747,57.1895 25.6167,57.2415 C25.9317,57.6215 26.2697,57.9865 26.6317,58.3325 C26.6817,58.3815 26.7357,58.4285 26.7877,58.4765 C26.9197,58.5995 27.0537,58.7205 27.1927,58.8375 C27.2577,58.8925 27.3227,58.9475 27.3877,59.0015 C27.5257,59.1145 27.6667,59.2235 27.8097,59.3315 C27.8727,59.3785 27.9337,59.4265 27.9977,59.4725 C28.2037,59.6215 28.4137,59.7675 28.6317,59.9075 L36.8177,65.1455 C36.5247,63.0375 36.9687,60.9625 37.9617,59.2005 C37.8427,60.1235 37.8457,61.0735 37.9857,62.0265 C38.0297,62.3205 38.1987,62.5645 38.4297,62.7135 C38.6237,62.8365 38.8607,62.8945 39.1047,62.8585 C39.1297,62.8545 39.1507,62.8465 39.1757,62.8405 C40.1207,66.0285 43.2827,68.2565 46.7647,69.1285 C46.6407,69.2055 46.5297,69.3025 46.4497,69.4295 L46.1907,69.8335 L32.4427,93.2335 L3.3277,89.7195 L24.8107,56.1555 C24.8827,56.2615 24.9547,56.3675 25.0297,56.4725" id="Fill-5" fill="#E5C4A2"></path>
                                <path d="M62.5932,56.0507 L52.2852,49.4547 C48.9292,47.3067 47.7312,43.0507 49.2922,39.5127 C50.3182,39.2547 51.4412,39.3947 52.4022,40.0097 L68.0832,50.0447 C69.7672,51.1217 70.5452,53.1757 69.9992,55.0977 L68.9922,58.6507 C67.8512,61.0247 65.8252,62.9157 63.3312,63.8647 L53.2172,67.9067 C53.2032,67.9117 53.1902,67.9177 53.1752,67.9247 C52.8442,68.0747 52.5002,68.2117 52.1552,68.3317 C52.1422,68.3367 52.1272,68.3417 52.1132,68.3477 L52.1102,68.3487 C52.0982,68.3527 52.0852,68.3567 52.0732,68.3607 C50.5402,68.8817 48.9502,69.0887 47.3482,68.9777 C47.1382,68.9627 46.9382,69.0217 46.7652,69.1287 C43.2822,68.2567 40.1202,66.0287 39.1752,62.8407 C39.6742,62.7297 40.0122,62.2537 39.9372,61.7387 C39.6142,59.5497 40.1862,57.3897 41.3842,55.6577 C42.0232,55.2727 42.7122,54.9567 43.4492,54.7317 C47.6692,53.4367 51.9802,55.1847 54.2262,58.5907 L55.8212,56.0987 C56.1302,56.2957 56.5362,56.3137 56.8682,56.1087 L57.2732,55.8597 L57.9672,55.4307 L61.4222,57.6417 L61.5312,57.7117 C61.9892,58.0047 62.5992,57.8707 62.8922,57.4127 C63.1862,56.9537 63.0522,56.3437 62.5932,56.0507" id="Fill-7" fill="#E9CAAA"></path>
                                <path d="M49.8891,50.0946 C48.7781,49.9376 47.6301,49.9606 46.4851,50.1736 C45.1261,47.5316 45.1181,44.2856 46.7051,41.5596 C46.3391,44.6946 47.4801,47.9046 49.8891,50.0946" id="Fill-9" fill="#E8B792"></path>
                                <path d="M54.5932,2.4296 C55.9472,3.2956 56.3432,5.1016 55.4772,6.4546 L54.7452,7.5986 L41.8002,27.8276 C42.5092,29.5426 43.8782,29.1586 43.8782,29.1586 L43.8902,29.1656 C43.9382,29.0786 43.9862,28.9916 44.0392,28.9066 L57.8842,7.2716 L58.3702,6.5116 C59.6252,4.5516 62.2402,3.9766 64.2012,5.2316 C66.1622,6.4866 66.7372,9.1016 65.4822,11.0626 L64.9952,11.8226 L51.5982,32.7596 L51.6432,32.7726 L51.3032,33.2196 L51.2312,33.3336 C51.0822,33.5646 50.9152,33.7756 50.7342,33.9696 L48.1872,37.3206 C48.2032,37.3186 48.2202,37.3186 48.2372,37.3166 C48.2262,37.3326 48.2142,37.3466 48.2032,37.3636 C47.3652,38.6736 46.8752,40.1086 46.7052,41.5596 C46.3392,44.6946 47.4802,47.9046 49.8892,50.0946 C48.7782,49.9376 47.6302,49.9606 46.4852,50.1736 C46.0842,50.2486 45.6842,50.3456 45.2852,50.4676 C41.2962,51.6916 38.4772,55.2006 37.9612,59.2006 C37.8422,60.1236 37.8462,61.0736 37.9862,62.0266 C38.0302,62.3206 38.1982,62.5646 38.4302,62.7136 C38.6232,62.8366 38.8612,62.8946 39.1052,62.8586 C39.1292,62.8546 39.1512,62.8466 39.1752,62.8406 C39.6742,62.7296 40.0122,62.2536 39.9372,61.7396 C39.6142,59.5496 40.1862,57.3896 41.3842,55.6576 C42.4442,54.1246 43.9912,52.9266 45.8642,52.3526 C49.5362,51.2256 53.4212,52.6166 55.5282,55.8126 C55.6072,55.9316 55.7072,56.0266 55.8212,56.0986 C56.1302,56.2966 56.5362,56.3136 56.8682,56.1086 L57.2732,55.8596 L57.9672,55.4306 L61.4222,57.6416 L61.5302,57.7116 C61.9892,58.0046 62.5992,57.8706 62.8922,57.4126 C63.1862,56.9536 63.0522,56.3446 62.5932,56.0506 L52.2852,49.4546 C48.9292,47.3066 47.7312,43.0516 49.2922,39.5126 C49.4552,39.1426 49.6392,38.7776 49.8642,38.4266 C50.7532,37.0366 52.6072,36.6296 53.9952,37.5186 L69.6772,47.5536 C71.0042,48.4026 71.6072,49.9926 71.1772,51.5086 L69.6162,57.0076 C69.4552,57.5756 69.2442,58.1246 68.9922,58.6506 L68.9912,58.6506 C67.8512,61.0246 65.8252,62.9156 63.3312,63.8646 L53.2172,67.9066 C53.2032,67.9116 53.1902,67.9176 53.1752,67.9246 C52.8442,68.0746 52.5002,68.2116 52.1552,68.3316 C52.1422,68.3366 52.1272,68.3416 52.1132,68.3476 L52.1102,68.3486 C52.0982,68.3526 52.0852,68.3566 52.0732,68.3606 C50.5402,68.8816 48.9502,69.0886 47.3482,68.9776 C47.1382,68.9626 46.9382,69.0216 46.7652,69.1286 C46.6412,69.2056 46.5302,69.3026 46.4492,69.4296 L46.1912,69.8336 C46.6892,69.9106 47.1902,69.9546 47.6902,69.9736 C47.1902,69.9546 46.6892,69.9106 46.1912,69.8336 L38.6792,82.6196 L31.6232,93.0026 L4.3132,89.8386 L13.7922,73.3696 L24.8112,56.1556 C24.7772,56.1036 24.7432,56.0516 24.7102,55.9996 C24.7432,56.0506 24.7792,56.1006 24.8132,56.1526 L25.0722,55.7486 C25.2662,55.4456 25.2792,55.0596 25.1052,54.7436 C22.9842,50.8786 23.1412,46.1736 25.5142,42.4636 L33.4152,30.1166 L34.2352,28.8366 L36.3472,25.5356 L49.8352,4.4566 L50.5682,3.3136 C51.4342,1.9596 53.2392,1.5636 54.5932,2.4296 Z M69.9062,45.3596 L62.7972,40.8106 L77.0032,18.6106 L77.4892,17.8506 C78.7442,15.8896 81.3612,15.3156 83.3222,16.5696 C85.2812,17.8246 85.8572,20.4406 84.6022,22.4016 L84.1152,23.1616 L69.9442,45.3076 C69.9322,45.3256 69.9172,45.3416 69.9062,45.3596 Z M60.5872,39.3206 C60.5752,39.3386 60.5622,39.3546 60.5502,39.3726 L55.0582,35.8586 C54.4892,35.4936 53.8732,35.2626 53.2462,35.1526 C53.2942,35.0656 53.3422,34.9776 53.3962,34.8936 L68.2552,11.6726 L69.5002,9.7266 C70.0362,8.8886 70.8272,8.3226 71.7032,8.0256 C71.9602,7.9966 72.2182,7.9806 72.4782,7.9896 C72.6302,7.9936 72.7822,8.0066 72.9352,8.0246 C73.1832,8.0556 73.4302,8.0976 73.6742,8.1646 C73.8612,8.2156 74.0442,8.2806 74.2272,8.3536 C74.5272,8.4736 74.8222,8.6206 75.1042,8.8026 C75.4072,8.9956 75.6832,9.2156 75.9312,9.4566 C76.0552,9.5776 76.1722,9.7036 76.2822,9.8336 C76.4462,10.0276 76.5872,10.2346 76.7192,10.4466 C76.8542,10.6636 76.9772,10.8876 77.0772,11.1206 C77.1492,11.2866 77.1892,11.4636 77.2432,11.6356 C77.2892,11.7816 77.3512,11.9226 77.3842,12.0716 C77.3512,11.9226 77.2892,11.7816 77.2432,11.6356 C77.3222,12.5336 77.1352,13.4616 76.6132,14.2776 L75.3662,16.2236 L60.5872,39.3206 Z M48.9062,2.2506 L23.8542,41.4016 C21.1972,45.5516 20.9272,50.7736 23.1032,55.1676 L12.1332,72.3096 C11.8402,72.7676 -0.4458,91.6436 0.0122,91.9366 L34.0272,94.6076 C34.4542,94.8806 36.5232,90.0336 37.0372,89.0076 L37.1202,88.8536 L37.1242,88.8456 L47.8022,70.9726 C49.4472,71.0186 51.0762,70.7746 52.6552,70.2446 C52.6972,70.2346 52.7392,70.2206 52.7792,70.2046 L52.8252,70.1856 C53.2112,70.0516 53.5962,69.8976 53.9692,69.7286 L64.0482,65.7006 C67.6572,64.3276 70.4542,61.2776 71.5132,57.5456 L73.0732,52.0456 C73.6512,50.0106 73.0312,47.8896 71.5232,46.4966 L86.2622,23.4636 C88.1032,20.5876 87.2602,16.7496 84.3842,14.9096 C82.4992,13.7036 80.9642,12.4706 79.0862,13.3856 C79.6512,10.9086 78.6542,8.2316 76.3952,6.7856 C73.9802,5.2406 71.4152,4.7486 68.8732,7.4446 C67.8602,4.9996 66.5932,4.1186 64.7982,2.9696 C62.4232,1.4506 59.8642,2.3646 57.8432,4.1366 C57.6352,2.7996 56.8822,1.5536 55.6552,0.7686 C53.3862,-0.6834 50.3592,-0.0184 48.9062,2.2506 Z" id="Fill-11" fill="#C79877"></path>
                                <path d="M60.5502,39.3725 L55.0582,35.8585 C54.4892,35.4945 53.8732,35.2625 53.2462,35.1525 C53.2942,35.0655 53.3422,34.9785 53.3962,34.8935 L70.1302,8.8045 C71.6332,8.2095 73.7902,7.6275 75.2562,8.5655 C76.7212,9.5025 77.7212,11.6895 76.9912,13.6855 L60.5872,39.3205 C60.5752,39.3385 60.5622,39.3545 60.5502,39.3725" id="Fill-14" fill="#F3D5B2"></path>
                                <path d="M77.0034,18.6107 C78.5064,18.0167 80.2624,18.1227 81.7284,19.0607 C83.1924,19.9987 84.0244,21.5477 84.1154,23.1617 L69.9434,45.3077 C69.9324,45.3257 69.9174,45.3407 69.9054,45.3597 L62.7974,40.8107 L77.0034,18.6107 Z" id="Fill-16" fill="#F3D5B2"></path>
                                <path d="M52.9995,4.9203 C53.9775,5.5453 54.5775,6.5353 54.7455,7.5983 L41.8005,27.8283 C42.5095,29.5433 43.8785,29.1583 43.8785,29.1583 L43.8905,29.1653 C43.9375,29.0783 43.9855,28.9913 44.0395,28.9063 L57.8845,7.2723 C59.3875,6.6773 61.1425,6.7843 62.6075,7.7223 C64.0725,8.6593 64.9055,10.2093 64.9955,11.8223 L51.5985,32.7593 L51.3035,33.2193 L50.7335,33.9693 L48.1875,37.3203 C48.2035,37.3183 48.2205,37.3183 48.2365,37.3163 C48.2265,37.3333 48.2145,37.3473 48.2035,37.3633 C47.3645,38.6733 46.8755,40.1083 46.7055,41.5593 C45.1175,44.2863 45.1265,47.5313 46.4845,50.1733 C46.0845,50.2483 45.6845,50.3453 45.2855,50.4673 C41.2965,51.6913 38.4775,55.2003 37.9615,59.2003 C36.9695,60.9623 36.5245,63.0383 36.8175,65.1463 L28.6315,59.9073 C28.4135,59.7683 28.2035,59.6223 27.9975,59.4733 C27.9345,59.4263 27.8725,59.3783 27.8105,59.3323 C27.6675,59.2243 27.5255,59.1143 27.3885,59.0013 C27.3225,58.9473 27.2575,58.8933 27.1925,58.8373 C27.0545,58.7203 26.9195,58.5993 26.7875,58.4763 C26.7355,58.4283 26.6825,58.3813 26.6315,58.3333 C26.2705,57.9863 25.9325,57.6213 25.6165,57.2413 C25.5745,57.1903 25.5335,57.1373 25.4915,57.0853 C25.3775,56.9413 25.2655,56.7963 25.1575,56.6493 C25.1145,56.5913 25.0715,56.5323 25.0295,56.4723 C24.9545,56.3673 24.8845,56.2593 24.8125,56.1523 L25.0715,55.7493 C25.2665,55.4453 25.2785,55.0593 25.1045,54.7433 C22.9835,50.8783 23.1415,46.1733 25.5145,42.4633 L33.4155,30.1163 L34.2345,28.8363 L36.3475,25.5363 L49.8355,4.4573 C50.8715,4.1643 52.0215,4.2953 52.9995,4.9203" id="Fill-18" fill="#F3D5B2"></path>
                                <g id="Group-2" stroke-width="1" fill="none" transform="translate(49.000000, 1.000000)">
                                    <path d="M34.3217,15.5697 C36.2817,16.8247 36.8567,19.4407 35.6017,21.4017 L35.1157,22.1617 C35.0247,20.5477 34.1927,18.9987 32.7267,18.0607 C31.2617,17.1227 29.5067,17.0167 28.0037,17.6107 L28.4897,16.8507 C29.7447,14.8897 32.3607,14.3157 34.3217,15.5697" id="Fill-20" fill="#F2E1DE"></path>
                                    <path d="M26.3325,7.4462 C28.2925,8.7012 28.8665,11.3172 27.6125,13.2782 L27.1265,14.0382 C27.0355,12.4242 26.2035,10.8752 24.7375,9.9372 C23.2725,8.9992 21.5175,8.8932 20.0145,9.4872 L20.5005,8.7272 C21.7555,6.7662 24.3715,6.1922 26.3325,7.4462" id="Fill-22" fill="#F2E1DE"></path>
                                    <path d="M15.2016,4.2313 C17.1626,5.4863 17.7366,8.1023 16.4816,10.0623 L15.9956,10.8223 C15.9056,9.2093 15.0726,7.6593 13.6076,6.7223 C12.1416,5.7843 10.3876,5.6773 8.8846,6.2723 L9.3706,5.5113 C10.6256,3.5513 13.2406,2.9773 15.2016,4.2313" id="Fill-24" fill="#F2E1DE"></path>
                                    <path d="M3.9995,3.9203 C3.0205,3.2953 1.8715,3.1643 0.8355,3.4573 L1.5675,2.3133 C2.4335,0.9603 4.2395,0.5633 5.5935,1.4293 C6.9465,2.2953 7.3435,4.1013 6.4775,5.4553 L5.7455,6.5983 C5.5775,5.5353 4.9775,4.5463 3.9995,3.9203" id="Fill-26" fill="#F2E1DE"></path>
                                </g>
                            </g>
                        </g>
                    </g>
                </g>
            </g>
        </g>
    </g>
</svg>