<svg width="22" height="22" viewBox="0 0 22 22" xmlns="http://www.w3.org/2000/svg"><title>icon</title><path d="M10.996 21.121h8.185c1.197-.001 2.041-.958 2.042-2.313 0-3.539.001-7.077-.001-10.615 0-1.37-.841-2.32-2.056-2.32-5.442-.002-10.884-.002-16.326 0-1.227 0-2.063.949-2.064 2.338V18.8c.001 1.36.838 2.317 2.035 2.319 2.729.004 5.457.001 8.185.001zM0 7.715c.023-.099.048-.198.07-.298.302-1.44 1.37-2.41 2.687-2.413C6.048 4.997 9.34 5 12.63 5h6.548c1.43 0 2.517 1.017 2.78 2.605.006.038.027.073.04.11v11.563c-.012.028-.032.056-.035.086-.137 1.317-1.22 2.64-2.828 2.635-5.474-.02-10.948-.007-16.423-.009-1.206 0-2.284-.932-2.609-2.246-.038-.154-.07-.31-.104-.466V7.715zM11.023.002h2.823c1.188.001 2.131.817 2.149 1.865.008.53.005 1.063 0 1.594-.003.351-.204.544-.543.539-.326-.006-.502-.185-.507-.54-.007-.488 0-.976-.002-1.465-.002-.686-.43-1.07-1.204-1.07-1.826-.002-3.65-.002-5.474.002-.787.001-1.195.366-1.205 1.066-.004.472.002.943-.006 1.414-.005.338-.202.528-.527.524-.328-.004-.518-.193-.52-.532-.005-.506-.012-1.013-.002-1.518C6.025.824 6.945.017 8.14.002c.485-.005.971 0 1.456 0h1.427" fill="#686874" fill-rule="evenodd"/></svg>