<svg xmlns="http://www.w3.org/2000/svg" width="101" height="64" viewBox="0 0 101 64"><g fill-rule="evenodd" clip-rule="evenodd"><path fill="#D5D7D8" d="M66.455.127c.856.176 1.724.305 2.564.535 3.317.909 5.69 2.936 6.975 6.141.414 1.031.638 2.14.83 3.274-1.677-4.716-4.674-7.83-9.825-8.442.689.232 1.4.416 2.062.711.673.299 1.337.65 1.938 1.076 2.436 1.73 3.895 4.075 4.345 7.048.426 2.824-.19 5.389-1.821 7.72-1.544 2.209-3.662 3.604-6.267 4.187-3.437.77-6.589-.01-9.292-2.219-2.104-1.72-3.397-3.955-3.727-6.742-.449-3.787.428-7.134 3.162-9.828 1.989-1.961 4.418-3.15 7.265-3.336.069-.005.135-.081.201-.124l1.59-.001zm-.664 22.004c4.749.012 8.546-3.903 8.604-8.322.069-5.357-4.017-8.904-8.602-8.86-4.874.046-8.506 3.643-8.568 8.542-.06 4.732 3.622 8.558 8.566 8.64z"/><path d="M.577 43.869c.177-.966.365-1.931.528-2.899.354-2.111.705-4.223 1.042-6.338.283-1.774.542-3.553.817-5.328.189-1.219.389-2.435.595-3.726 1.317 0 2.658-.015 3.998.021.149.004.395.27.422.442.379 2.373.709 4.753 1.087 7.127.319 2.006.698 4.004 1.023 6.01.256 1.578.472 3.162.712 4.786H7.787l-.499-3.244H3.896c-.133.869-.293 1.755-.394 2.647-.05.445-.175.669-.675.645-.749-.037-1.5-.011-2.251-.011l.001-.132zm3.712-5.882h2.578l-1.254-8.321-.077.013-1.247 8.308z"/><path fill="#2DB068" d="M22.406 63.486c-.766 0-1.85-.499-2.256-1.464-.318-.758-.567-1.603-.59-2.415-.074-2.583-.056-5.169-.014-7.753.018-1.062.195-2.111.978-2.953.873-.938 2.003-1.13 3.171-1.029 1.091.092 2.169.406 2.709 1.504.269.548.515 1.173.525 1.769.053 3.024.024 6.052.025 9.077 0 1.575-.991 3.092-2.65 3.278-.047.005-1.323-.014-1.898-.014zm2.031-7.699c0-1.456.013-2.912-.005-4.367-.009-.79-.382-1.174-1.077-1.188-.729-.016-1.123.333-1.167 1.094-.063 1.07-.135 2.143-.128 3.214.011 1.887.04 3.776.14 5.66.047.877.484 1.082 1.209 1.064.681-.016 1.025-.471 1.027-1.241.003-1.412.001-2.825.001-4.236zm53.55 7.833c-.869-.31-1.803-.56-2.214-1.503-.253-.582-.532-1.213-.544-1.826-.055-3.045-.101-6.094.004-9.136.061-1.796.947-2.858 2.738-3.184 1.404-.255 2.672-.099 3.712.984.691.718.909 1.637.925 2.56.05 2.801.036 5.604.013 8.406-.018 1.895-.917 3.168-2.778 3.698l-1.856.001zm-.264-7.853c0 1.412-.007 2.825.002 4.237.007 1.048.746 1.514 1.62 1.216.727-.248.743-.932.749-1.513.033-2.648.024-5.299.004-7.947a2.375 2.375 0 0 0-.263-1.046c-.294-.556-.858-.597-1.38-.439-.546.163-.724.659-.729 1.187-.013 1.434-.003 2.869-.003 4.305zm17.894 7.853c-.506-.263-1.059-.462-1.504-.802-.903-.689-1.13-1.707-1.146-2.786-.007-.415-.001-.828-.001-1.279h2.385c0 .393-.005.801.001 1.207.017.948.618 1.442 1.539 1.27.584-.109.968-.958.8-1.696-.304-1.335-1.189-2.252-2.2-3.065-1.548-1.248-2.561-2.794-2.504-4.826.042-1.491.429-2.891 2.048-3.509 1.955-.747 4.948-.127 5.097 2.826.003.069.081.135.124.201v1.192H97.87c0-.259.018-.435-.004-.606-.024-.19-.093-.375-.124-.565-.116-.68-.457-.957-1.146-.952-.67.006-.884.442-.979 1-.188 1.1.299 1.967 1.009 2.716.689.729 1.452 1.39 2.164 2.098.816.812 1.173 1.861 1.466 2.938v1.591c-.044.088-.111.173-.127.266-.175 1.01-.602 1.859-1.542 2.354-.349.185-.741.288-1.114.429-.619-.002-1.238-.002-1.856-.002zm-83.384-.899c-.792-.582-1.029-1.505-1.039-2.43-.034-3.004-.065-6.009.004-9.012.057-2.513 1.865-3.677 4.279-3.354 2.311.312 2.955 1.973 2.992 3.798.009.485.001.97.001 1.505h-2.317c-.062-.679-.08-1.374-.201-2.052-.136-.764-.527-1.012-1.285-.944-.567.05-.958.5-.964 1.185-.014 1.547-.004 3.093-.004 4.64 0 1.303-.039 2.607.011 3.908.044 1.132.612 1.337 1.339 1.273.646-.056 1.01-.482 1.032-1.324.02-.725.004-1.451.004-2.227h2.381c-.043 1.38.183 2.753-.388 4.075-.425.982-1.142 1.555-2.192 1.731-.07.013-2.698.127-3.653-.772zm45.341.899c-.776-.289-1.623-.509-2.029-1.32-.272-.544-.583-1.149-.594-1.731-.058-3.179-.046-6.358-.02-9.537.014-1.485 1.073-2.832 2.648-3.071 1.392-.212 2.695-.137 3.633.991.441.53.701 1.283.837 1.977.14.723.03 1.494.03 2.298h-2.384c0-.59.003-1.198-.002-1.808-.005-.79-.398-1.193-1.146-1.187-.712.007-1.104.406-1.105 1.158-.005 2.894-.005 5.785 0 8.678 0 .742.368 1.154 1.013 1.167.84.016 1.208-.312 1.228-1.14.018-.789.004-1.58.004-2.403h2.379c-.059 1.374.286 2.789-.291 4.12-.383.884-1.085 1.49-2.079 1.679-.094.018-.178.086-.267.13l-1.855-.001z"/><path fill="#979A9D" d="M66.728 32.263c2.293 6.67 6.558 10.868 13.869 11.316-2.511-.354-4.797-1.281-6.813-2.881-2.272-1.804-3.915-4.048-4.66-6.863-.341-1.29-.619-2.636-.64-3.96a13.149 13.149 0 0 1 .979-5.137c1.396-3.451 3.806-5.935 7.161-7.491 1.297-.602 2.679-.919 4.111-1.102 2.888-.368 5.595.194 8.131 1.499 3.71 1.906 6.212 4.933 7.091 8.996.826 3.821.517 7.631-1.478 11.146-1.277 2.253-3.101 3.954-5.285 5.311a14.98 14.98 0 0 1-5.549 2.071c-2.262.368-4.509.162-6.735-.433a13.58 13.58 0 0 1-6.637-4.037c-1.77-1.937-2.955-4.204-3.295-6.854-.067-.528-.166-1.054-.25-1.581zm14.383 6.835c6.222.055 10.93-5.049 11.189-10.565.326-6.905-5.18-11.587-10.581-11.845-6.829-.327-11.551 5.2-11.838 10.539-.367 6.817 5.327 12.031 11.23 11.871z"/><path d="M54.281 43.97H51.51V25.581c1.153 0 2.313-.018 3.473.022.139.006.336.303.39.497.57 2.079 1.115 4.164 1.673 6.246.321 1.197.653 2.393 1.065 3.574v-10.3h2.609v18.377c-.921 0-1.861.03-2.797-.028-.168-.011-.392-.367-.456-.602-.488-1.766-.935-3.544-1.408-5.313-.557-2.078-1.127-4.152-1.777-6.224l-.001 12.14zM17.677 25.607h2.916v.605c0 4.439.033 8.88-.028 13.319-.012.881-.281 1.794-.605 2.625-.487 1.248-1.579 1.829-2.853 1.953-.773.076-1.579.004-2.35-.124-1.505-.246-2.689-1.646-2.758-3.147-.121-2.638-.124-5.281-.149-7.923-.021-2.209-.004-4.418-.004-6.628v-.678h3.048v14.216c0 1.092.441 1.541 1.486 1.524.839-.012 1.293-.509 1.296-1.448.005-2.254.001-4.507.001-6.76v-7.534zM50.264 44c-.895 0-1.752.021-2.606-.02-.146-.009-.374-.268-.406-.439-.169-.932-.29-1.873-.431-2.828h-3.39l-.5 3.247h-2.753c.118-.831.221-1.64.349-2.443.241-1.518.496-3.031.744-4.548.342-2.094.69-4.185 1.022-6.28.245-1.54.485-3.081.69-4.627.049-.373.183-.492.536-.488 1.149.011 2.296.015 3.445-.002.402-.006.493.162.551.544.363 2.373.776 4.739 1.158 7.111.283 1.753.538 3.51.817 5.265.248 1.559.521 3.114.768 4.675.039.252.006.516.006.833zm-3.863-5.993c-.41-2.742-.816-5.457-1.224-8.172l-.131.004-1.227 8.168h2.582zm-15.867-7.426h-2.783c0-.334.014-.638-.003-.94-.048-.896-.608-1.562-1.361-1.534-.921.033-1.305.537-1.407 1.547-.091.907.276 1.739.852 2.392.896 1.014 1.906 1.928 2.859 2.892 1.882 1.904 2.264 4.185 1.574 6.679-.462 1.672-1.798 2.338-3.291 2.5-.662.071-1.357-.002-2.019-.119-1.528-.27-2.476-1.222-2.784-2.724-.194-.947-.236-1.925-.352-2.938h2.814c.067.64.123 1.283.205 1.924a1.22 1.22 0 0 0 1.182 1.092c.839.04 1.275-.261 1.472-.939.342-1.189-.095-2.205-.806-3.066-.651-.791-1.471-1.442-2.229-2.144-2.284-2.109-3.179-4.847-1.856-7.903.403-.932 1.198-1.504 2.232-1.738 1.141-.259 2.268-.28 3.36.134 1.573.597 2.168 1.903 2.333 3.463.048.452.008.916.008 1.422z"/><path fill="#2DB068" d="M91.724 63.486c-.771 0-1.499.029-2.223-.021-.178-.012-.442-.256-.493-.44-.872-3.197-1.717-6.401-2.661-9.597v10.021h-2.342V48.114c.947 0 1.91-.021 2.87.022.139.006.332.298.386.488.545 1.929 1.067 3.864 1.593 5.799.196.722.387 1.444.667 2.161v-8.44h2.203v15.342zm-57.873-7.289v-8.04h2.214v15.325c-.75 0-1.514.017-2.275-.019-.118-.006-.287-.232-.329-.384-.91-3.303-1.805-6.607-2.774-9.911v10.276h-2.24V48.157h3.117l2.178 8.06.109-.02zm6.088-3.219v10.465h-2.211V48.117c.97 0 1.953-.014 2.935.02.116.003.284.247.327.405.68 2.518 1.344 5.038 2.014 7.56.009.033.047.061.111.139v-8.075h2.221v15.321c-.733 0-1.456.026-2.175-.021-.152-.01-.368-.27-.417-.451-.905-3.305-1.789-6.615-2.68-9.924-.009-.034-.058-.055-.125-.113zm12.833 1.466v2.395H49.67v4.25h4.024v2.349h-6.682v-15.29h6.664v2.202h-4.021v4.095l3.117-.001z"/><path d="M35.024 25.618v15.575h4.748v2.775h-7.6V25.617l2.852.001z"/><path fill="#2DB068" d="M70.269 48.158v2.188h-2.456V63.44h-2.536V50.392h-2.479v-2.233l7.471-.001zm.988 15.29V48.145h2.446v15.303h-2.446z"/></g></svg>