<?xml version="1.0" encoding="UTF-8"?>
<svg width="40px" height="40px" viewBox="0 0 40 40" version="1.1" xmlns="http://www.w3.org/2000/svg" xmlns:xlink="http://www.w3.org/1999/xlink">
    <!-- Generator: Sketch 46 (44423) - http://www.bohemiancoding.com/sketch -->
    <title>user_img</title>
    <desc>Created with Sketch.</desc>
    <defs>
        <circle id="path-1" cx="20" cy="20" r="20"></circle>
    </defs>
    <g id="Symbols" stroke="none" stroke-width="1" fill="none" fill-rule="evenodd">
        <g id="user_img">
            <mask id="mask-2" fill="white">
                <use xlink:href="#path-1"></use>
            </mask>
            <use id="Mask" fill="#E5E5E5" xlink:href="#path-1"></use>
            <g id="user" opacity="0.3" mask="url(#mask-2)" fill-rule="nonzero" fill="#000000">
                <g transform="translate(7.000000, 10.000000)" id="Shape">
                    <path d="M12.8016097,14 C8.94165342,14 5.80160966,10.8588107 5.80160966,6.99744619 C5.80160966,3.13608172 8.94165342,0 12.8016097,0 C16.6615659,0 19.8016097,3.14118935 19.8016097,7.00255381 C19.8016097,10.8639183 16.6615659,14 12.8016097,14 Z M13,1 C9.69125214,1 7,3.69009859 7,6.9974282 C7,10.3047578 9.69125214,13 13,13 C16.3087479,13 19,10.3099014 19,7.0025718 C19,3.69524218 16.3087479,1 13,1 Z"></path>
                    <path d="M25.4550584,26 C25.1616284,26 24.9205965,25.7684863 24.9205965,25.4866434 C24.9205965,19.1703446 19.5707376,14.031746 12.9947602,14.031746 C6.41878275,14.031746 1.06892382,19.1703446 1.06892382,25.4866434 C1.06892382,25.7684863 0.827891979,26 0.534461911,26 C0.241031842,26 -5.2515544e-12,25.7684863 -5.2515544e-12,25.4866434 C-5.2515544e-12,22.1498258 1.35187424,19.0143244 3.80935107,16.6589237 C6.26682789,14.303523 9.5312374,13 13,13 C16.4687626,13 19.7384119,14.2984901 22.1906489,16.6589237 C24.6428859,19.0193573 26,22.1548587 26,25.4866434 C25.9895204,25.7684863 25.7484885,26 25.4550584,26 Z"></path>
                </g>
            </g>
        </g>
    </g>
</svg>