<?xml version="1.0" encoding="UTF-8"?>
<svg width="17px" height="17px" viewBox="0 0 17 17" version="1.1" xmlns="http://www.w3.org/2000/svg" xmlns:xlink="http://www.w3.org/1999/xlink">
    <!-- Generator: Sketch 46.2 (44496) - http://www.bohemiancoding.com/sketch -->
    <title>Scheduled_icon</title>
    <desc>Created with Sketch.</desc>
    <defs></defs>
    <g id="Booking-office---Job-Details" stroke="none" stroke-width="1" fill="none" fill-rule="evenodd">
        <g id="Symbols" transform="translate(-46.000000, -102.000000)">
            <g id="Scheduled_icon" transform="translate(46.000000, 102.000000)">
                <g>
                    <circle id="bg" fill="#FF8254" cx="8.5" cy="8.5" r="8.5"></circle>
                    <g id="Page-1" transform="translate(2.000000, 3.000000)" fill="#FFFFFF">
                        <path d="M6.69340509,0 C4.25572542,0 2.15061744,1.72523077 1.55358051,4.15384615 L0.00039999999,4.15384615 L2.04978454,6.72092308 L4.09916907,4.15384615 L2.93959068,4.15384615 C3.49328715,2.52 4.99428221,1.38461538 6.69340509,1.38461538 C8.88784748,1.38461538 10.6736513,3.24830769 10.6736513,5.53846154 C10.6736513,7.82861538 8.88784748,9.69230769 6.69340509,9.69230769 C5.27732194,9.69230769 3.95676471,8.89753846 3.24651189,7.61723077 L3.11825951,7.38738462 L1.63760793,7.38738462 L1.96664162,8.05846154 C2.87944474,9.92030769 4.690899,11.0769231 6.69340509,11.0769231 C9.62021278,11.0769231 12.0004,8.59292308 12.0004,5.53846154 C12.0004,2.484 9.62021278,0 6.69340509,0" id="Fill-1"></path>
                        <polygon id="Fill-4" points="6 3 6 6.52165544 8.73347324 8 9 7.58614052 6.52465897 6.23484119 6.52465897 3"></polygon>
                    </g>
                </g>
            </g>
        </g>
    </g>
</svg>