<svg width="17" height="17" viewBox="0 0 17 17" xmlns="http://www.w3.org/2000/svg"><title>9144FAB3-40EE-49EE-8ADF-A1C27C80270F</title><g fill="none" fill-rule="evenodd"><circle fill="#F5A623" cx="8.5" cy="8.5" r="8.5"/><path d="M7.561 13.649a1.175 1.175 0 0 1-.351-.864c0-.343.117-.631.351-.865.234-.234.522-.351.864-.351.343 0 .631.117.865.351.234.234.351.522.351.864 0 .343-.117.631-.351.865a1.175 1.175 0 0 1-.864.351c-.343 0-.631-.117-.865-.351zM6.95 4.907c.537-.534 1.278-.8 2.223-.8.945 0 1.707.251 2.288.754.58.503.871 1.198.871 2.087 0 .888-.25 1.53-.748 1.923-.498.395-1.22.6-2.164.618v1.235H7.327V8.046h.871c.676 0 1.174-.078 1.495-.234.32-.156.481-.455.481-.897 0-.295-.084-.533-.253-.715-.17-.182-.403-.273-.702-.273-.3 0-.533.089-.702.267-.17.177-.254.418-.254.721H6.17c-.017-.806.243-1.475.78-2.008z" fill="#EFEFEF"/></g></svg>