<svg width="17" height="17" viewBox="0 0 17 17" xmlns="http://www.w3.org/2000/svg"><title>7C0EAD96-1FE5-4F15-8C0C-366F0BE70BC5</title><g fill="none" fill-rule="evenodd"><circle fill="#FD4264" cx="8.5" cy="8.5" r="8.5"/><path d="M9.168 8.5l2.676-2.685a.486.486 0 0 0 0-.685.482.482 0 0 0-.683 0L8.485 7.815 5.81 5.13a.482.482 0 0 0-.682 0 .486.486 0 0 0 0 .685l2.675 2.686-2.673 2.682a.486.486 0 0 0 .34.828.48.48 0 0 0 .34-.142l2.676-2.686 2.676 2.686a.48.48 0 0 0 .68 0 .486.486 0 0 0 0-.686L9.169 8.501z" stroke="#FFF" fill="#FFF"/></g></svg>