<?xml version="1.0" standalone="no"?><!DOCTYPE svg PUBLIC "-//W3C//DTD SVG 1.1//EN" "http://www.w3.org/Graphics/SVG/1.1/DTD/svg11.dtd"><svg width="70" height="44" viewBox="0 0 70 44" xmlns="http://www.w3.org/2000/svg" xmlns:xlink="http://www.w3.org/1999/xlink"><svg stroke-width=".501" stroke-linejoin="bevel" fill-rule="evenodd" overflow="visible" width="16" height="14" viewBox="0 0 12 10.5" id="email" x="48" y="22"><path d="M.001 8.804V1.697C.001.761.761.001 1.697.001h8.607C11.24.001 12 .761 12 1.697v7.107c0 .936-.76 1.696-1.696 1.696H1.697C.761 10.5.001 9.74.001 8.804zm11.249 0V1.697a.945.945 0 0 0-.069-.353.404.404 0 0 1-.059.064c-.014.015-4.855 4.108-4.865 4.115-.031.03-.067.054-.038.032a.676.676 0 0 1-.078.043l-.005.001a.36.36 0 0 1-.135.026h-.004c-.037 0-.071-.005-.195-.055.087.039.083.038-.005-.003.031.022-.016-.006-.054-.044-.01-.007-4.851-4.1-4.865-4.115a.322.322 0 0 1-.059-.063.939.939 0 0 0-.068.352v7.107c0 .522.424.946.946.946h8.607a.947.947 0 0 0 .946-.946zM10.602.868a.422.422 0 0 1 .056-.047.927.927 0 0 0-.354-.07H1.697a.937.937 0 0 0-.356.07A8183.62 8183.62 0 0 0 6 4.76L10.602.868z" fill="#6d6d7b" stroke="none" font-family="Times New Roman" font-size="16"/></svg><svg stroke-width=".501" stroke-linejoin="bevel" fill-rule="evenodd" overflow="visible" width="16" height="22" viewBox="0 0 12 16.5" id="lock"><path d="M.001 14.804V7.697c0-.936.76-1.696 1.696-1.696h.553V3.75C2.25 2.094 3.93 0 6 0c2.07 0 3.75 2.094 3.75 3.75v2.251h.554c.936 0 1.696.76 1.696 1.696v7.107c0 .936-.76 1.696-1.696 1.696H1.697c-.936 0-1.696-.76-1.696-1.696zm11.249 0V7.697a.948.948 0 0 0-.946-.946H1.697a.947.947 0 0 0-.946.946v7.107c0 .522.424.946.946.946h8.607a.947.947 0 0 0 .946-.946zm-6.841-1.213a2.25 2.25 0 0 1 .84-3.713L5.25 8.25h1.501v1.629a2.25 2.25 0 1 1-2.342 3.712zm2.652-.53a1.502 1.502 0 0 0 0-2.122 1.502 1.502 0 0 0-2.122 0 1.502 1.502 0 0 0 0 2.122 1.502 1.502 0 0 0 2.122 0zM9 6.001V3.75c0-1.279-1.389-3-3-3-1.605 0-3 1.715-3 3v2.251h6z" fill="#6d6d7b" stroke="none" font-family="Times New Roman" font-size="16"/></svg><svg stroke-width=".501" stroke-linejoin="bevel" fill-rule="evenodd" overflow="visible" width="16" height="22" viewBox="0 0 12 16.5" id="map-marker" x="16"><g fill="#909090" stroke="none" transform="matrix(1 0 0 -1 0 16.5)" font-family="Times New Roman" font-size="16"><path d="M2.999 10.5a3.001 3.001 0 0 0 6 0 3.001 3.001 0 0 0-6 0zm5.25 0a2.25 2.25 0 1 1-4.502-.002 2.25 2.25 0 0 1 4.502.002z"/><path d="M5.812.089C5.574.376 0 7.153 0 10.423 0 13.774 2.691 16.5 6 16.5s6-2.726 6-6.077C12 7.152 6.426.376 6.189.089A.247.247 0 0 0 6 0a.242.242 0 0 0-.188.089zm.187.966l.227.287c.57.728 1.458 1.902 2.335 3.219 1.453 2.183 2.689 4.509 2.689 5.862 0 2.931-2.356 5.318-5.25 5.318-2.895 0-5.25-2.387-5.25-5.318 0-1.362 1.224-3.661 2.688-5.862a53.3 53.3 0 0 1 2.335-3.22l.226-.286z"/></g></svg><svg stroke-width=".501" stroke-linejoin="bevel" fill-rule="evenodd" overflow="visible" width="16" height="22" viewBox="0 0 12 16.5" id="mobile" x="32"><g fill="#909090" stroke="none" transform="matrix(1 0 0 -1 0 16.5)" font-family="Times New Roman" font-size="16"><path d="M0 .636v15.227c0 .351.285.636.636.636h10.727a.636.636 0 0 0 .636-.636V.636A.636.636 0 0 0 11.363 0H.636A.636.636 0 0 0 0 .636zM11.249.75v14.999H.75V.75h10.499z"/><path d="M4.939 2.689a1.502 1.502 0 0 0 0 2.122 1.502 1.502 0 0 0 2.122 0 1.502 1.502 0 0 0 0-2.122 1.502 1.502 0 0 0-2.122 0zm1.591.531a.749.749 0 1 1-1.059 1.06.749.749 0 0 1 1.059-1.06zM3.75 14.037v-1.075c0-.117.095-.212.212-.212h4.075c.117 0 .212.095.212.212v1.075a.212.212 0 0 1-.212.212H3.962a.212.212 0 0 1-.212-.212z"/></g></svg><svg stroke-width=".501" stroke-linejoin="bevel" fill-rule="evenodd" overflow="visible" width="22" height="22" viewBox="0 0 16.5 16.5" id="suitcase" y="22"><g fill="#6d6d7b" stroke="none" transform="matrix(1 0 0 -1 0 16.5)" font-family="Times New Roman" font-size="16"><path d="M0 1.696v9.357c0 .936.76 1.696 1.696 1.696h13.107c.936 0 1.696-.76 1.696-1.696V1.696C16.499.76 15.739 0 14.803 0H1.696C.76 0 0 .76 0 1.696zm15.749 0v9.357a.948.948 0 0 1-.946.946H1.696a.947.947 0 0 1-.946-.946V1.696c0-.522.424-.946.946-.946h13.107c.521 0 .946.424.946.946zM4.5 13.499v1.304c0 .936.76 1.696 1.696 1.696h4.107c.936 0 1.696-.76 1.696-1.696v-1.304h-.75v1.304a.948.948 0 0 1-.946.946H6.196a.947.947 0 0 1-.946-.946v-1.304H4.5z"/></g></svg><svg stroke-width=".501" stroke-linejoin="bevel" fill-rule="evenodd" overflow="visible" width="22" height="10" viewBox="0 0 16.5 7.5" id="txt" x="22" y="22"><g fill="#909090" stroke="none" transform="matrix(1 0 0 -1 0 7.5)" font-family="Times New Roman" font-size="16"><path d="M11.602 6.75H.399a.37.37 0 0 0-.289.11.374.374 0 0 0 .289.639h11.197a.374.374 0 0 0 .294-.639.372.372 0 0 0-.288-.11zM16.102 0H.399A.37.37 0 0 0 .11.11a.374.374 0 0 0 .289.639h15.697A.374.374 0 0 0 16.39.11a.372.372 0 0 0-.288-.11z"/></g></svg><svg stroke-width=".501" stroke-linejoin="bevel" fill-rule="evenodd" overflow="visible" width="22" height="22" viewBox="0 0 16.5 16.5" id="user-circle" x="48"><path d="M2.416 14.084a8.252 8.252 0 0 1 0-11.668 8.252 8.252 0 0 1 11.668 0 8.252 8.252 0 0 1 0 11.668 8.252 8.252 0 0 1-11.668 0zm11.138-.53l.052-.054a7.503 7.503 0 0 0-10.66-.054l-.054.054.054.054a7.503 7.503 0 0 0 10.608 0zm.536-.597zm-11.674.009zm11.138-10.02a7.503 7.503 0 0 0-10.608 0 7.506 7.506 0 0 0-.553 9.993l.023-.023a8.252 8.252 0 0 1 11.689.023 7.506 7.506 0 0 0-.551-9.993zM6.128 8.872a3.003 3.003 0 0 1 0-4.244 3.003 3.003 0 0 1 4.244 0 3.003 3.003 0 0 1 0 4.244 3.003 3.003 0 0 1-4.244 0zm3.713-.531a2.25 2.25 0 1 0-3.18-3.182 2.25 2.25 0 0 0 3.18 3.182z" fill="#6d6d7b" stroke="none" font-family="Times New Roman" font-size="16"/></svg><svg width="15" height="11" viewBox="0 0 15 11" id="valid" x="22" y="32"><title>Shape</title><path d="M11.938.516l-6.34 6.23-2.536-2.492a1.816 1.816 0 0 0-2.537 0c-.7.688-.7 1.804 0 2.493l3.804 3.737c.7.688 1.836.688 2.537 0l7.608-7.476a1.74 1.74 0 0 0 0-2.492 1.817 1.817 0 0 0-2.536 0z" fill="#FFF" fill-rule="evenodd"/></svg></svg>