<?xml version="1.0" standalone="no"?><!DOCTYPE svg PUBLIC "-//W3C//DTD SVG 1.1//EN" "http://www.w3.org/Graphics/SVG/1.1/DTD/svg11.dtd"><svg stroke-width=".501" stroke-linejoin="bevel" fill-rule="evenodd" xmlns="http://www.w3.org/2000/svg" overflow="visible" width="16" height="14" viewBox="0 0 12 10.5"><path d="M.001 8.804V1.697C.001.761.761.001 1.697.001h8.607C11.24.001 12 .761 12 1.697v7.107c0 .936-.76 1.696-1.696 1.696H1.697C.761 10.5.001 9.74.001 8.804zm11.249 0V1.697a.945.945 0 0 0-.069-.353.404.404 0 0 1-.059.064c-.014.015-4.855 4.108-4.865 4.115-.031.03-.067.054-.038.032a.676.676 0 0 1-.078.043l-.005.001a.36.36 0 0 1-.135.026h-.004c-.037 0-.071-.005-.195-.055.087.039.083.038-.005-.003.031.022-.016-.006-.054-.044-.01-.007-4.851-4.1-4.865-4.115a.322.322 0 0 1-.059-.063.939.939 0 0 0-.068.352v7.107c0 .522.424.946.946.946h8.607a.947.947 0 0 0 .946-.946zM10.602.868a.422.422 0 0 1 .056-.047.927.927 0 0 0-.354-.07H1.697a.937.937 0 0 0-.356.07A8183.62 8183.62 0 0 0 6 4.76L10.602.868z" fill="#6d6d7b" stroke="none" font-family="Times New Roman" font-size="16"/></svg>