<?xml version="1.0" standalone="no"?><!DOCTYPE svg PUBLIC "-//W3C//DTD SVG 1.1//EN" "http://www.w3.org/Graphics/SVG/1.1/DTD/svg11.dtd"><svg stroke-width=".501" stroke-linejoin="bevel" fill-rule="evenodd" xmlns="http://www.w3.org/2000/svg" overflow="visible" width="16" height="22" viewBox="0 0 12 16.5"><path d="M.001 14.804V7.697c0-.936.76-1.696 1.696-1.696h.553V3.75C2.25 2.094 3.93 0 6 0c2.07 0 3.75 2.094 3.75 3.75v2.251h.554c.936 0 1.696.76 1.696 1.696v7.107c0 .936-.76 1.696-1.696 1.696H1.697c-.936 0-1.696-.76-1.696-1.696zm11.249 0V7.697a.948.948 0 0 0-.946-.946H1.697a.947.947 0 0 0-.946.946v7.107c0 .522.424.946.946.946h8.607a.947.947 0 0 0 .946-.946zm-6.841-1.213a2.25 2.25 0 0 1 .84-3.713L5.25 8.25h1.501v1.629a2.25 2.25 0 1 1-2.342 3.712zm2.652-.53a1.502 1.502 0 0 0 0-2.122 1.502 1.502 0 0 0-2.122 0 1.502 1.502 0 0 0 0 2.122 1.502 1.502 0 0 0 2.122 0zM9 6.001V3.75c0-1.279-1.389-3-3-3-1.605 0-3 1.715-3 3v2.251h6z" fill="#6d6d7b" stroke="none" font-family="Times New Roman" font-size="16"/></svg>