<?xml version="1.0" standalone="no"?><!DOCTYPE svg PUBLIC "-//W3C//DTD SVG 1.1//EN" "http://www.w3.org/Graphics/SVG/1.1/DTD/svg11.dtd"><svg stroke-width=".501" stroke-linejoin="bevel" fill-rule="evenodd" xmlns="http://www.w3.org/2000/svg" overflow="visible" width="16" height="22" viewBox="0 0 12 16.5"><g fill="#909090" stroke="none" transform="matrix(1 0 0 -1 0 16.5)" font-family="Times New Roman" font-size="16"><path d="M2.999 10.5a3.001 3.001 0 0 0 6 0 3.001 3.001 0 0 0-6 0zm5.25 0a2.25 2.25 0 1 1-4.502-.002 2.25 2.25 0 0 1 4.502.002z"/><path d="M5.812.089C5.574.376 0 7.153 0 10.423 0 13.774 2.691 16.5 6 16.5s6-2.726 6-6.077C12 7.152 6.426.376 6.189.089A.247.247 0 0 0 6 0a.242.242 0 0 0-.188.089zm.187.966l.227.287c.57.728 1.458 1.902 2.335 3.219 1.453 2.183 2.689 4.509 2.689 5.862 0 2.931-2.356 5.318-5.25 5.318-2.895 0-5.25-2.387-5.25-5.318 0-1.362 1.224-3.661 2.688-5.862a53.3 53.3 0 0 1 2.335-3.22l.226-.286z"/></g></svg>