<?xml version="1.0" standalone="no"?><!DOCTYPE svg PUBLIC "-//W3C//DTD SVG 1.1//EN" "http://www.w3.org/Graphics/SVG/1.1/DTD/svg11.dtd"><svg stroke-width=".501" stroke-linejoin="bevel" fill-rule="evenodd" xmlns="http://www.w3.org/2000/svg" overflow="visible" width="16" height="22" viewBox="0 0 12 16.5"><g fill="#909090" stroke="none" transform="matrix(1 0 0 -1 0 16.5)" font-family="Times New Roman" font-size="16"><path d="M0 .636v15.227c0 .351.285.636.636.636h10.727a.636.636 0 0 0 .636-.636V.636A.636.636 0 0 0 11.363 0H.636A.636.636 0 0 0 0 .636zM11.249.75v14.999H.75V.75h10.499z"/><path d="M4.939 2.689a1.502 1.502 0 0 0 0 2.122 1.502 1.502 0 0 0 2.122 0 1.502 1.502 0 0 0 0-2.122 1.502 1.502 0 0 0-2.122 0zm1.591.531a.749.749 0 1 1-1.059 1.06.749.749 0 0 1 1.059-1.06zM3.75 14.037v-1.075c0-.117.095-.212.212-.212h4.075c.117 0 .212.095.212.212v1.075a.212.212 0 0 1-.212.212H3.962a.212.212 0 0 1-.212-.212z"/></g></svg>