<?xml version="1.0" standalone="no"?><!DOCTYPE svg PUBLIC "-//W3C//DTD SVG 1.1//EN" "http://www.w3.org/Graphics/SVG/1.1/DTD/svg11.dtd"><svg stroke-width=".501" stroke-linejoin="bevel" fill-rule="evenodd" xmlns="http://www.w3.org/2000/svg" overflow="visible" width="22" height="22" viewBox="0 0 16.5 16.5"><g fill="#6d6d7b" stroke="none" transform="matrix(1 0 0 -1 0 16.5)" font-family="Times New Roman" font-size="16"><path d="M0 1.696v9.357c0 .936.76 1.696 1.696 1.696h13.107c.936 0 1.696-.76 1.696-1.696V1.696C16.499.76 15.739 0 14.803 0H1.696C.76 0 0 .76 0 1.696zm15.749 0v9.357a.948.948 0 0 1-.946.946H1.696a.947.947 0 0 1-.946-.946V1.696c0-.522.424-.946.946-.946h13.107c.521 0 .946.424.946.946zM4.5 13.499v1.304c0 .936.76 1.696 1.696 1.696h4.107c.936 0 1.696-.76 1.696-1.696v-1.304h-.75v1.304a.948.948 0 0 1-.946.946H6.196a.947.947 0 0 1-.946-.946v-1.304H4.5z"/></g></svg>