<?xml version="1.0" standalone="no"?><!DOCTYPE svg PUBLIC "-//W3C//DTD SVG 1.1//EN" "http://www.w3.org/Graphics/SVG/1.1/DTD/svg11.dtd"><svg stroke-width=".501" stroke-linejoin="bevel" fill-rule="evenodd" xmlns="http://www.w3.org/2000/svg" overflow="visible" width="22" height="10" viewBox="0 0 16.5 7.5"><g fill="#909090" stroke="none" transform="matrix(1 0 0 -1 0 7.5)" font-family="Times New Roman" font-size="16"><path d="M11.602 6.75H.399a.37.37 0 0 0-.289.11.374.374 0 0 0 .289.639h11.197a.374.374 0 0 0 .294-.639.372.372 0 0 0-.288-.11zM16.102 0H.399A.37.37 0 0 0 .11.11a.374.374 0 0 0 .289.639h15.697A.374.374 0 0 0 16.39.11a.372.372 0 0 0-.288-.11z"/></g></svg>