<?xml version="1.0" standalone="no"?><!DOCTYPE svg PUBLIC "-//W3C//DTD SVG 1.1//EN" "http://www.w3.org/Graphics/SVG/1.1/DTD/svg11.dtd"><svg stroke-width=".501" stroke-linejoin="bevel" fill-rule="evenodd" xmlns="http://www.w3.org/2000/svg" overflow="visible" width="22" height="22" viewBox="0 0 16.5 16.5"><path d="M2.416 14.084a8.252 8.252 0 0 1 0-11.668 8.252 8.252 0 0 1 11.668 0 8.252 8.252 0 0 1 0 11.668 8.252 8.252 0 0 1-11.668 0zm11.138-.53l.052-.054a7.503 7.503 0 0 0-10.66-.054l-.054.054.054.054a7.503 7.503 0 0 0 10.608 0zm.536-.597zm-11.674.009zm11.138-10.02a7.503 7.503 0 0 0-10.608 0 7.506 7.506 0 0 0-.553 9.993l.023-.023a8.252 8.252 0 0 1 11.689.023 7.506 7.506 0 0 0-.551-9.993zM6.128 8.872a3.003 3.003 0 0 1 0-4.244 3.003 3.003 0 0 1 4.244 0 3.003 3.003 0 0 1 0 4.244 3.003 3.003 0 0 1-4.244 0zm3.713-.531a2.25 2.25 0 1 0-3.18-3.182 2.25 2.25 0 0 0 3.18 3.182z" fill="#6d6d7b" stroke="none" font-family="Times New Roman" font-size="16"/></svg>